/* XPM */
static char * focuswriter_xpm[] = {
"32 32 193 2",
"  	g None",
". 	g #CFCFCF",
"+ 	g #DEDEDE",
"@ 	g #E8E8E8",
"# 	g #EBEBEB",
"$ 	g #DFDFDF",
"% 	g #D0D0D0",
"& 	g #C5C5C5",
"* 	g #E2E2E2",
"= 	g #CBCBCB",
"- 	g #AAAAAA",
"; 	g #919191",
"> 	g #808080",
", 	g #7A7A7A",
"' 	g #818181",
") 	g #ABABAB",
"! 	g #CDCDCD",
"~ 	g #E3E3E3",
"{ 	g #C6C6C6",
"] 	g #DCDCDC",
"^ 	g #BABABA",
"/ 	g #898989",
"( 	g #7C7C7C",
"_ 	g #7B7B7B",
": 	g #8A8A8A",
"< 	g #BCBCBC",
"[ 	g #C3C3C3",
"} 	g #7F7F7F",
"| 	g #737373",
"1 	g #565656",
"2 	g #434343",
"3 	g #3B3B3B",
"4 	g #727272",
"5 	g #7E7E7E",
"6 	g #939393",
"7 	g #D1D1D1",
"8 	g #C4C4C4",
"9 	g #BFBFBF",
"0 	g #878787",
"a 	g #848484",
"b 	g #656565",
"c 	g #373737",
"d 	g #444444",
"e 	g #515151",
"f 	g #595959",
"g 	g #383838",
"h 	g #666666",
"i 	g #838383",
"j 	g #C1C1C1",
"k 	g #B9B9B9",
"l 	g #888888",
"m 	g #3F3F3F",
"n 	g #393939",
"o 	g #4A4A4A",
"p 	g #4E4E4E",
"q 	g #505050",
"r 	g #535353",
"s 	g #4F4F4F",
"t 	g #4D4D4D",
"u 	g #494949",
"v 	g #3E3E3E",
"w 	g #8F8F8F",
"x 	g #8C8C8C",
"y 	g #353535",
"z 	g #3D3D3D",
"A 	g #464646",
"B 	g #484848",
"C 	g #454545",
"D 	g #3C3C3C",
"E 	g #343434",
"F 	g #9A9A9A",
"G 	g #909090",
"H 	g #404040",
"I 	g #424242",
"J 	g #717171",
"K 	g #707070",
"L 	g #5B5B5B",
"M 	g #9C9C9C",
"N 	g #A4A4A4",
"O 	g #AFAFAF",
"P 	g #949494",
"Q 	g #D7D7D7",
"R 	g #929292",
"S 	g #3A3A3A",
"T 	g #B2B2B2",
"U 	g #A7A7A7",
"V 	g #B7B7B7",
"W 	g #989898",
"X 	g #2F2F2F",
"Y 	g #363636",
"Z 	g #B5B5B5",
"` 	g #525252",
" .	g #787878",
"..	g #9E9E9E",
"+.	g #BDBDBD",
"@.	g #B0B0B0",
"#.	g #323232",
"$.	g #333333",
"%.	g #AEAEAE",
"&.	g #313131",
"*.	g #B4B4B4",
"=.	g #A0A0A0",
"-.	g #2E2E2E",
";.	g #2D2D2D",
">.	g #ADADAD",
",.	g #303030",
"'.	g #A2A2A2",
").	g #A6A6A6",
"!.	g #6A6A6A",
"~.	g #252525",
"{.	g #2A2A2A",
"].	g #2B2B2B",
"^.	g #ACACAC",
"/.	g #292929",
"(.	g #2C2C2C",
"_.	g #6E6E6E",
":.	g #A8A8A8",
"<.	g #4C4C4C",
"[.	g #232323",
"}.	g #272727",
"|.	g #C0C0C0",
"1.	g #7D7D7D",
"2.	g #242424",
"3.	g #A9A9A9",
"4.	g #212121",
"5.	g #282828",
"6.	g #A5A5A5",
"7.	g #9B9B9B",
"8.	g #1E1E1E",
"9.	g #262626",
"0.	g #222222",
"a.	g #9F9F9F",
"b.	g #B1B1B1",
"c.	g #B3B3B3",
"d.	g #1A1A1A",
"e.	g #1D1D1D",
"f.	g #202020",
"g.	g #1F1F1F",
"h.	g #1B1B1B",
"i.	g #979797",
"j.	g #757575",
"k.	g #1C1C1C",
"l.	g #797979",
"m.	g #8D8D8D",
"n.	g #BBBBBB",
"o.	g #161616",
"p.	g #181818",
"q.	g #191919",
"r.	g #959595",
"s.	g #121212",
"t.	g #141414",
"u.	g #171717",
"v.	g #999999",
"w.	g #101010",
"x.	g #131313",
"y.	g #151515",
"z.	g #C7C7C7",
"A.	g #0F0F0F",
"B.	g #0E0E0E",
"C.	g #111111",
"D.	g #6C6C6C",
"E.	g #747474",
"F.	g #0C0C0C",
"G.	g #0D0D0D",
"H.	g #C2C2C2",
"I.	g #0B0B0B",
"J.	g #090909",
"K.	g #0A0A0A",
"L.	g #CACACA",
"M.	g #606060",
"N.	g #D2D2D2",
"O.	g #D3D3D3",
"P.	g #C9C9C9",
"Q.	g #060606",
"R.	g #070707",
"S.	g #080808",
"T.	g #8B8B8B",
"U.	g #636363",
"V.	g #5E5E5E",
"W.	g #040404",
"X.	g #616161",
"Y.	g #DBDBDB",
"Z.	g #4B4B4B",
"`.	g #5F5F5F",
" +	g #8E8E8E",
".+	g #777777",
"++	g #5D5D5D",
"@+	g #DDDDDD",
"#+	g #575757",
"$+	g #BEBEBE",
"%+	g #DADADA",
"&+	g #5A5A5A",
"*+	g #545454",
"                                                                ",
"                        . + @ # # @ $ %                         ",
"                  & * = - ; > , , ' ; ) ! ~ {                   ",
"                ] ^ / ( _ _ , , , _ _ _ ( : < +                 ",
"            [ ! ; > > } | 1 2 3 3 2 1 4 5 } > 6 7 8             ",
"          [ 9 0 a a b c c d e f f e d c g h i a 0 j {           ",
"        k < / l ' m n o p q e r r e s t u c v ' l / 9 <         ",
"        j w x > y z A B B u u u o u B B A C D E > x w &         ",
"      j F G / E 3 H I I H J J K J J J J L H m n E / G M &       ",
"    N O P P H E 3 z v z 3 Q Q Q Q Q Q Q R z z S E 2 P P T U     ",
"    V M W | X y n S 3 S Y Q Z s q ` ` r u D 3 n Y X  .W ..+.    ",
"    @.M M g X #.y c g c $.Q %.&.E c g n S S g Y $.X 3 M M *.    ",
"  F U =.G -.;.X $.E E $.X Q >.-.&.$.y Y c Y Y $.,.;.X R =.- =.  ",
"  '.).N !.~.{.;.X ,.,.X ].Q ^./.(.-.,.&.$.#.#.X -.{.~._.N U N   ",
"  '.:.:.<.[.}.{.(.;.;.].}.Q |._ 1.5 5 } X -.-.(.{.}.2.s :.3.U   ",
"  =.) ) H 4.2.}.5.{.{.5.2.Q Q Q Q Q Q Q (.].{.5.}.2.4.I ) ) 6.  ",
"  7.O O H 8.4.[.~.9.9.~.0.Q - 4.[.9.9.}./.5.}.9.[.4.8.2 O O a.  ",
"  6 b.c.p d.e.f.4.0.[.4.g.Q 3.f.[.2.~.9.~.~.2.0.f.e.h.` c.b.i.  ",
"  l O V j.d.d.k.e.g.g.8.e.Q 3.8.4.0.0.[.0.4.f.8.k.d.d.l.V O m.  ",
"  , ).n.:./.o.p.q.h.k.h.d.Q :.h.e.g.g.g.8.8.k.d.p.o.{.- n.:.5   ",
"    r.9 9 D s.t.o.u.p.p.u.Q :.q.h.h.k.h.h.d.p.o.t.s.m 9 9 v.    ",
"    > ^ [ 6 4.w.s.x.t.y.y.Q U o.u.p.p.p.u.y.t.s.w.0.W [ n.a     ",
"    !.F z.z.o A.B.w.w.C.C.s.x.x.t.t.t.x.s.C.w.B.w.s z.z.7.D.    ",
"      E.^ = j Y F.F.G.B.B.A.A.A.w.w.w.A.B.G.F.F.g H.= ^ ,       ",
"        ' = . < g I.J.K.I.I.F.F.F.F.I.I.K.J.F.g +.. L.a         ",
"        M.: N.O.P.q g.Q.R.R.R.S.S.R.R.R.Q.g.r L.O.7 T.U.        ",
"          V.l N.Q Q 6.I }.F.R.W.W.R.F.}.2 U Q Q 7 / X.          ",
"            1 j.[ Y.Y.Y.{ m.V.Z.Z.`. +z.Y.Y.Y.[ .+f             ",
"                ++w = @+@+@+@+@+@+@+@+@+@+= w V.                ",
"                  Z.#+l.=.$+7 %+%+7 $+=., &+t                   ",
"                        o s ` *+*+` s o                         ",
"                                                                "};
