/* XPM */
static char * 32_xpm[] = {
"32 32 178 2",
"  	c None",
". 	c #E7E7E7",
"+ 	c #ECECEC",
"@ 	c #EFEFEF",
"# 	c #F2F2F2",
"$ 	c #DFDFDF",
"% 	c #EAEAEA",
"& 	c #CFCFCF",
"* 	c #AAAAAA",
"= 	c #8E8E8E",
"- 	c #7C7C7C",
"; 	c #737373",
"> 	c #E4E4E4",
", 	c #BCBCBC",
"' 	c #848484",
") 	c #797979",
"! 	c #7D7D7D",
"~ 	c #7E7E7E",
"{ 	c #D6D6D6",
"] 	c #D4D4D4",
"^ 	c #8D8D8D",
"/ 	c #7F7F7F",
"( 	c #808080",
"_ 	c #595959",
": 	c #454545",
"< 	c #3A3A3A",
"[ 	c #D3D3D3",
"} 	c #C4C4C4",
"| 	c #828282",
"1 	c #888888",
"2 	c #6B6B6B",
"3 	c #333333",
"4 	c #2F2F2F",
"5 	c #474747",
"6 	c #585858",
"7 	c #626262",
"8 	c #CCCCCC",
"9 	c #C0C0C0",
"0 	c #858585",
"a 	c #878787",
"b 	c #3B3B3B",
"c 	c #313131",
"d 	c #4F4F4F",
"e 	c #535353",
"f 	c #565656",
"g 	c #5C5C5C",
"h 	c #C7C7C7",
"i 	c #8A8A8A",
"j 	c #8B8B8B",
"k 	c #282828",
"l 	c #404040",
"m 	c #494949",
"n 	c #4C4C4C",
"o 	c #505050",
"p 	c #C9C9C9",
"q 	c #979797",
"r 	c #8F8F8F",
"s 	c #3E3E3E",
"t 	c #424242",
"u 	c #464646",
"v 	c #4A4A4A",
"w 	c #4E4E4E",
"x 	c #525252",
"y 	c #545454",
"z 	c #BDBDBD",
"A 	c #B1B1B1",
"B 	c #929292",
"C 	c #3F3F3F",
"D 	c #363636",
"E 	c #3C3C3C",
"F 	c #434343",
"G 	c #898989",
"H 	c #BEBEBE",
"I 	c #999999",
"J 	c #969696",
"K 	c #242424",
"L 	c #3D3D3D",
"M 	c #E1E1E1",
"N 	c #E0E0E0",
"O 	c #EBEBEB",
"P 	c #B2B2B2",
"Q 	c #989898",
"R 	c #9E9E9E",
"S 	c #383838",
"T 	c #303030",
"U 	c #373737",
"V 	c #E2E2E2",
"W 	c #222222",
"X 	c #353535",
"Y 	c #343434",
"Z 	c #B0B0B0",
"` 	c #A7A7A7",
" .	c #959595",
"..	c #1C1C1C",
"+.	c #2D2D2D",
"@.	c #393939",
"#.	c #2C2C2C",
"$.	c #414141",
"%.	c #ACACAC",
"&.	c #A4A4A4",
"*.	c #A2A2A2",
"=.	c #707070",
"-.	c #232323",
";.	c #2A2A2A",
">.	c #2E2E2E",
",.	c #A8A8A8",
"'.	c #A5A5A5",
").	c #575757",
"!.	c #272727",
"~.	c #323232",
"{.	c #171717",
"].	c #292929",
"^.	c #A9A9A9",
"/.	c #ABABAB",
"(.	c #212121",
"_.	c #202020",
":.	c #ADADAD",
"<.	c #AFAFAF",
"[.	c #1E1E1E",
"}.	c #262626",
"|.	c #DCDCDC",
"1.	c #767676",
"2.	c #5D5D5D",
"3.	c #1B1B1B",
"4.	c #1D1D1D",
"5.	c #191919",
"6.	c #2B2B2B",
"7.	c #919191",
"8.	c #B3B3B3",
"9.	c #7B7B7B",
"0.	c #1A1A1A",
"a.	c #151515",
"b.	c #252525",
"c.	c #8C8C8C",
"d.	c #A6A6A6",
"e.	c #B7B7B7",
"f.	c #121212",
"g.	c #161616",
"h.	c #181818",
"i.	c #111111",
"j.	c #131313",
"k.	c #0D0D0D",
"l.	c #E3E3E3",
"m.	c #0E0E0E",
"n.	c #1F1F1F",
"o.	c #BABABA",
"p.	c #101010",
"q.	c #141414",
"r.	c #080808",
"s.	c #0B0B0B",
"t.	c #C3C3C3",
"u.	c #C8C8C8",
"v.	c #0F0F0F",
"w.	c #0C0C0C",
"x.	c #787878",
"y.	c #BBBBBB",
"z.	c #C5C5C5",
"A.	c #CBCBCB",
"B.	c #0A0A0A",
"C.	c #090909",
"D.	c #6E6E6E",
"E.	c #D0D0D0",
"F.	c #515151",
"G.	c #060606",
"H.	c #070707",
"I.	c #696969",
"J.	c #D2D2D2",
"K.	c #050505",
"L.	c #030303",
"M.	c #646464",
"N.	c #727272",
"O.	c #D7D7D7",
"P.	c #DBDBDB",
"Q.	c #CECECE",
"R.	c #D9D9D9",
"S.	c #5B5B5B",
"T.	c #A3A3A3",
"U.	c #555555",
"                                                                ",
"                        . + @ # # @ + .                         ",
"                  $ % & * = - ; ; - = * & % $                   ",
"                > , ' ) - - ! ~ ~ ! - - ) ' , >                 ",
"            { ] ^ / ( ' ) _ : < < : _ ) ' ( / ^ ] {             ",
"          [ } | ' 1 2 3 4 5 6 7 7 6 5 4 3 2 1 ' | } [           ",
"        8 9 0 a a b c d e f _ g g _ f e d c b a a 0 9 8         ",
"        h i j 0 k l m n o e f 6 6 f e o n m l k 0 j i h         ",
"      p q r r k s t u v w o x y y x o w v u t s k r r q p       ",
"    z A B q C D E l F C ^ G i i i i G ^ C F l E D C q B A z     ",
"    H I J ) K D < L l 3 M { M N N N N O 3 l L < D K ) J I H     ",
"    P Q R S T 3 U < L 4 M V W X X Y 3 c l L < U 3 T S R Q P     ",
"  Z ` R  ...+.c Y U @.#.M M T t $.$.l s E @.U Y c +... .R ` Z   ",
"  %.&.*.=.-.;.>.T 3 D k M M #.s s E b < S D 3 T >.;.-.=.*.&.%.  ",
"  ,.&.'.).K !.;.+.T ~.K M V {.].k k !.>.Y ~.T +.;.!.K ).'.&.,.  ",
"  &.^./.n (.K !.;.#.>._.V { V M M M M ' c >.#.;.!.K (.n /.^.&.  ",
"  R :.<.w [.(.-.}.k ;...V |.1.~ ~ ! ! e #.;.k }.-.(.[.w <.:.R   ",
"  q <.Z 2.3.4._.W K }.5.V V ..#.#.#.6.;.k }.K W _.4.3.2.Z <.q   ",
"  7.:.8.9.{.0...[.(.W a.V V {.k k !.}.b.K W (.[...0.{.9.8.:.7.  ",
"  c.d.e.%.f.g.h.3...[.i.V V j.W W -.W (._.[...3.h.g.f.%.e.d.c.  ",
"     ., 9 s f.a.{.5.0.k.l.V m.n.[.[.[.....0.5.{.a.f.s 9 ,  .    ",
"    | o.H Q p.i.j.q.g.r.l.l.s.0.0.5.5.h.{.g.q.j.i.p.Q H o.|     ",
"    - I t.u.w v.v.p.f.w.) ) m.g.g.g.a.q.j.f.p.v.v.w u.t.I -     ",
"      x.y.z.z.;.w.w.k.v.p.i.i.f.f.i.i.v.v.k.w.w.;.z.z.y.x.      ",
"        / A.p 9 ;.B.C.s.w.w.k.w.w.k.w.w.s.C.B.;.9 p A./         ",
"        D.1 E.8 8 F.B.G.H.H.r.r.r.r.H.H.G.B.F.8 8 E.1 D.        ",
"          I.' J.E.{ d.F C.r.K.L.L.K.r.C.F d.{ E.J.' I.          ",
"            M.N.z.O.] P.u.7.D.2.2.D.7.u.P.] O.z.N.M.            ",
"                2.= Q.|.O.O.R.P.P.R.O.O.|.Q.= 2.                ",
"                  S.f x.T.t.O.V V O.t.T.x.f S.                  ",
"                        U.x o o o o x U.                        ",
"                                                                "};
